<?xml version="1.0" encoding="UTF-8"?>
<svg width="39px" height="32px" viewBox="0 0 39 32" version="1.1" xmlns="http://www.w3.org/2000/svg" xmlns:xlink="http://www.w3.org/1999/xlink">
    <!-- Generator: Sketch 42 (36781) - http://www.bohemiancoding.com/sketch -->
    <title>Untitled</title>
    <desc>Created with Sketch.</desc>
    <defs>
        <path d="M0.0599999944,28.0392956 C3.54795834,30.3159362 7.72625576,31.7 12.3,31.7 C27,31.7 35,19.5 35,9 L35,7.9 C36.5,6.9 37.9,5.4 39,3.8 C37.6,4.5 36,4.9 34.4,5.1 C36.1,4 37.4,2.6 38,0.6 C36.4,1.5 34.7,2.2 32.9,2.5 C31.5,1 29.4,0 27.1,0 C22.7,0 19.1,3.6 19.1,8 C19.1,8.6 19.2,9.2 19.3,9.8 C12.6,9.4 6.8,6.3 2.8,1.5 C2.1,2.7 1.7,4 1.7,5.5 C1.7,8.3 3.1,10.8 5.2,12.2 C3.9,12.2 2.8,11.8 1.6,11.2 L1.6,11.3 C1.6,15.2 4.4,18.3 8,19.1 C7.3,19.3 6.7,19.4 5.9,19.4 C5.4,19.4 4.9,19.3 4.4,19.2 C5.4,22.3 8.3,24.6 11.8,24.7 C9.1,26.8 5.6,28.1 1.9,28.1 C1.22016275,28.1 0.728969857,28.1 0.06,28.0083947 L0.06,28.039296 L0.0599999944,28.0392956 Z" id="path-1"></path>
    </defs>
    <g id="Page-1" stroke="none" stroke-width="1" fill="none" fill-rule="evenodd">
        <g id="Twitter">
            <mask id="mask-2" fill="white">
                <use xlink:href="#path-1"></use>
            </mask>
            <g id="Clip-2"></g>
            <polygon id="Fill-1" fill="#FFFFFF" mask="url(#mask-2)" points="0.06 31.76 39.06 31.76 39.06 -0.04 0.06 -0.04"></polygon>
        </g>
    </g>
</svg>
