<?xml version="1.0" encoding="UTF-8"?>
<svg width="16px" height="35px" viewBox="0 0 16 35" version="1.1" xmlns="http://www.w3.org/2000/svg" xmlns:xlink="http://www.w3.org/1999/xlink">
    <!-- Generator: Sketch 42 (36781) - http://www.bohemiancoding.com/sketch -->
    <title>Untitled</title>
    <desc>Created with Sketch.</desc>
    <defs>
        <path d="M0.06,17.3 L3.4,17.3 L3.4,34.7 L10.5,34.7 L10.5,17.3 L15.3,17.3 C15.3,17.3 15.7,14.6 15.9,11.5 L10.5,11.5 L10.5,7.5 C10.5,6.9 11.2,6.1 12,6.1 L15.9,6.1 C15.9,5.4 15.9,2.7 16,0 L10.7,0 C3.3,0 3.4,5.8 3.4,6.7 L3.4,11.5 L0.06,11.5 L0.06,17.3 L0.06,17.3 Z" id="path-1"></path>
    </defs>
    <g id="Page-1" stroke="none" stroke-width="1" fill="none" fill-rule="evenodd">
        <g id="Facebook">
            <mask id="mask-2" fill="white">
                <use xlink:href="#path-1"></use>
            </mask>
            <g id="Clip-2"></g>
            <polygon id="Fill-1" fill="#FFFFFF" mask="url(#mask-2)" points="0.06 34.7 16.02 34.7 16.02 -0.1 0.06 -0.1"></polygon>
        </g>
    </g>
</svg>
